<?xml version="1.0" standalone="no"?><!DOCTYPE svg PUBLIC "-//W3C//DTD SVG 1.1//EN" "http://www.w3.org/Graphics/SVG/1.1/DTD/svg11.dtd"><svg t="1740546774151" class="icon" viewBox="0 0 1024 1024" version="1.1" xmlns="http://www.w3.org/2000/svg" p-id="1477" width="200" height="200" xmlns:xlink="http://www.w3.org/1999/xlink"><path d="M747.188 593.752c3.592-13.004 22.032-13.004 25.624 0l15.14 54.836a119.612 119.612 0 0 0 83.46 83.46l54.836 15.14c13.004 3.592 13.004 22.032 0 25.624l-54.836 15.14a119.612 119.612 0 0 0-83.46 83.46l-15.14 54.836c-3.592 13.004-22.032 13.004-25.624 0l-15.14-54.836a119.612 119.612 0 0 0-83.46-83.46l-54.836-15.14c-13.004-3.592-13.004-22.032 0-25.624l54.836-15.14a119.612 119.612 0 0 0 83.46-83.46l15.14-54.836z" p-id="1478" fill="#515151"></path><path d="M509.152 88h5.696c71.06 0 128.34 0 173.492 5.92 46.848 6.148 86.428 19.288 118.276 49.908 1.888 1.816 3.74 3.668 5.556 5.556 30.62 31.848 43.756 71.428 49.904 118.276C868 312.812 868 370.092 868 441.152V512c0 22.092-17.908 40-40 40s-40-17.908-40-40v-68c0-74.58-0.08-126.592-5.244-165.932-5.016-38.248-14.212-58.632-28.252-73.24-1.092-1.132-2.2-2.24-3.332-3.332-14.608-14.04-34.992-23.236-73.24-28.252C638.592 168.08 586.58 168 512 168c-74.58 0-126.592 0.08-165.932 5.24-38.248 5.02-58.632 14.216-73.24 28.256-1.132 1.092-2.24 2.2-3.332 3.332-14.04 14.608-23.236 34.992-28.252 73.24C236.08 317.408 236 369.42 236 444v136c0 74.58 0.08 126.592 5.24 165.932 5.02 38.248 14.216 58.632 28.256 73.24 1.092 1.132 2.2 2.24 3.332 3.332 14.608 14.04 34.992 23.236 73.24 28.252C385.408 855.92 437.42 856 512 856c22.092 0 40 17.908 40 40s-17.908 40-40 40h-2.848c-71.06 0-128.34 0-173.492-5.924-46.848-6.148-86.428-19.284-118.28-49.904a201.468 201.468 0 0 1-5.552-5.556c-30.62-31.848-43.76-71.428-49.904-118.276C155.996 711.188 156 653.908 156 582.848v-141.696c0-71.06 0-128.34 5.92-173.492 6.152-46.848 19.288-86.428 49.908-118.28 1.816-1.884 3.668-3.736 5.556-5.552 31.848-30.62 71.428-43.76 118.276-49.904C380.812 87.996 438.092 88 509.152 88z" p-id="1479" fill="#515151"></path><path d="M316 360c0-22.092 17.908-40 40-40h312c22.092 0 40 17.908 40 40s-17.908 40-40 40H356c-22.092 0-40-17.908-40-40zM316 520c0-22.092 17.908-40 40-40h160c22.092 0 40 17.908 40 40s-17.908 40-40 40H356c-22.092 0-40-17.908-40-40z" p-id="1480" fill="#515151"></path></svg>